<?xml version="1.0" standalone="no"?>
<!DOCTYPE svg PUBLIC "-//W3C//DTD SVG 20010904//EN"
 "http://www.w3.org/TR/2001/REC-SVG-20010904/DTD/svg10.dtd">
<svg version="1.0" xmlns="http://www.w3.org/2000/svg"
 width="136.000000pt" height="136.000000pt" viewBox="0 0 136.000000 136.000000"
 preserveAspectRatio="xMidYMid meet">
<metadata>
Created by potrace 1.14, written by Peter Selinger 2001-2017
</metadata>
<g transform="translate(0.000000,136.000000) scale(0.100000,-0.100000)"
fill="#000000" stroke="none">
<path d="M585 1293 c-22 -9 -61 -38 -87 -64 -51 -53 -68 -95 -73 -188 -2 -31
-4 -59 -4 -62 -1 -4 -37 -21 -81 -39 -115 -48 -120 -80 -12 -81 l62 -1 0 -52
c1 -105 1 -453 1 -518 -1 -65 -2 -67 -28 -70 -27 -3 -28 -5 -31 -77 -2 -41 1
-78 7 -84 13 -13 669 -13 682 0 5 5 9 43 7 84 -3 72 -4 74 -30 77 -27 3 -28 6
-29 60 -1 71 -1 390 0 498 l1 80 62 2 c108 2 103 35 -14 83 l-82 34 -2 71 c-3
89 -31 150 -90 202 -69 62 -173 79 -259 45z m151 -42 c23 -2 96 -59 116 -92
13 -21 23 -58 26 -97 l5 -62 -84 36 c-127 55 -114 56 -262 -10 l-58 -26 2 52
c5 123 96 211 209 202 19 -1 40 -3 46 -3z"/>
</g>
</svg>
